<?xml version="1.0" standalone="no"?>
<!DOCTYPE svg PUBLIC "-//W3C//DTD SVG 20010904//EN"
 "http://www.w3.org/TR/2001/REC-SVG-20010904/DTD/svg10.dtd">
<svg version="1.0" xmlns="http://www.w3.org/2000/svg"
 width="200.000000pt" height="200.000000pt" viewBox="0 0 200.000000 200.000000"
 preserveAspectRatio="xMidYMid meet">
<metadata>
Created by potrace 1.11, written by Peter Selinger 2001-2013
</metadata>
<g transform="translate(0.000000,200.000000) scale(0.100000,-0.100000)"
fill="#000000" stroke="none">
<path d="M1230 1867 c-43 -22 -56 -125 -18 -151 32 -22 81 -20 113 6 25 19 27
25 21 66 -11 85 -51 112 -116 79z"/>
<path d="M586 1804 c-3 -9 -4 -19 -2 -23 2 -3 7 -38 11 -76 3 -39 10 -92 15
-120 7 -41 26 -297 23 -315 0 -3 -4 -72 -8 -155 -4 -82 -8 -152 -10 -155 -2
-3 -6 -79 -9 -170 -8 -198 6 -362 39 -461 19 -54 21 -69 10 -69 -8 0 -25 -5
-38 -11 -18 -8 -23 -17 -19 -33 7 -28 22 -47 33 -40 5 3 9 1 9 -3 0 -5 23 -17
52 -27 28 -10 57 -24 64 -31 7 -6 27 -11 46 -10 18 1 49 2 69 3 37 2 93 37 84
52 -3 5 -21 0 -40 -11 -37 -22 -55 -19 -55 11 0 10 -5 22 -11 26 -7 4 2 19 23
41 32 34 35 35 88 29 50 -5 53 -5 36 9 -25 19 -57 19 -101 1 l-34 -14 29 54
c15 30 24 56 20 59 -5 3 -25 -10 -45 -30 -32 -30 -36 -31 -31 -12 9 37 27 203
39 377 l12 165 25 -5 c52 -9 97 -4 126 17 26 18 32 19 54 8 36 -19 77 -8 113
30 29 31 31 31 59 17 27 -13 33 -12 82 12 52 26 86 68 86 109 0 8 14 20 31 27
42 18 67 70 52 111 -11 27 -9 30 16 44 31 16 54 61 49 96 -2 13 -18 33 -36 45
-25 17 -30 24 -19 31 18 11 37 47 37 71 0 11 -9 31 -21 46 -16 21 -29 26 -62
26 l-42 0 0 43 c0 60 -17 77 -74 77 -52 0 -63 -6 -80 -37 -28 -55 7 -122 66
-126 31 -2 33 -4 27 -33 -4 -24 0 -38 21 -62 25 -30 25 -32 9 -56 -10 -17 -15
-39 -12 -62 3 -30 -1 -41 -24 -64 -17 -17 -28 -39 -28 -55 0 -36 -17 -65 -38
-65 -22 -1 -46 -19 -61 -48 -11 -21 -14 -22 -29 -9 -40 35 -128 22 -151 -21
-10 -18 -18 -20 -64 -15 -32 3 -62 1 -75 -6 l-22 -12 0 228 c0 209 -11 331
-35 393 -4 13 2 15 33 12 24 -2 52 3 73 13 25 14 34 15 37 5 19 -55 88 -66
133 -21 79 79 -9 197 -96 129 -20 -15 -30 -18 -33 -10 -7 21 -59 42 -102 42
-45 0 -75 -23 -86 -65 -6 -25 -7 -26 -33 -8 -44 29 -181 103 -190 103 -5 0
-12 -7 -15 -16z"/>
</g>
</svg>
